<svg width="41" height="40" viewBox="0 0 41 40" fill="none" xmlns="http://www.w3.org/2000/svg">
<g clip-path="url(#clip0_23_37)">
<path d="M20.4004 0C9.40039 0 0.400391 9 0.400391 20C0.400391 31 9.40039 40 20.4004 40C31.4004 40 40.4004 31 40.4004 20C40.4004 9 31.4004 0 20.4004 0ZM17.1504 28C15.1504 28 12.9004 27.25 11.4004 26C9.40039 24.25 8.15039 22 8.15039 19.5C7.90039 17 8.65039 14.75 10.4004 13C12.1504 10.75 15.4004 7.75 15.6504 7.5C16.6504 6.75 17.9004 6.75 18.9004 7.5C19.6504 8.5 19.6504 9.75 18.9004 10.75L13.9004 15.75C13.1504 16.75 12.6504 17.75 12.6504 19C12.6504 20.25 13.4004 21.5 14.4004 22.25C15.6504 23.5 18.4004 23.75 20.1504 22.25L22.4004 20C23.1504 19 24.6504 19 25.6504 19.75C26.6504 20.5 26.6504 22 25.9004 23L23.4004 25.5C21.4004 27.25 19.1504 28 17.1504 28ZM30.6504 27.75C28.9004 30 25.4004 33 25.4004 33.25C24.9004 33.75 24.4004 33.75 23.9004 33.75C23.4004 33.75 22.6504 33.5 22.1504 33C21.4004 32 21.4004 30.75 22.1504 29.75L27.1504 24.75C27.9004 23.75 28.4004 22.75 28.4004 21.5C28.4004 20.25 27.6504 19 26.6504 18.25C25.4004 17 22.6504 16.75 20.9004 18.25L18.6504 20.5C17.9004 21.5 16.4004 21.5 15.4004 20.75C14.6504 19.75 14.6504 18.25 15.4004 17.5L17.9004 15C21.1504 12.25 26.4004 12 29.6504 15C31.6504 16.75 32.9004 19 32.9004 21.5C33.1504 23.75 32.4004 26 30.6504 27.75Z" fill="white"/>
</g>
<defs>
<clipPath id="clip0_23_37">
<rect width="40" height="40" fill="white" transform="translate(0.400391)"/>
</clipPath>
</defs>
</svg>
